<svg width="200" height="200" viewBox="0 0 200 200" fill="none" xmlns="http://www.w3.org/2000/svg">
<rect width="200" height="200" fill="#F3F4F6"/>
<path d="M75 60C75 55.0294 79.0294 51 84 51H116C120.971 51 125 55.0294 125 60V140C125 144.971 120.971 149 116 149H84C79.0294 149 75 144.971 75 140V60Z" fill="#9CA3AF"/>
<path d="M90 80C90 75.0294 94.0294 71 99 71H101C105.971 71 110 75.0294 110 80V82C110 86.9706 105.971 91 101 91H99C94.0294 91 90 86.9706 90 82V80Z" fill="#6B7280"/>
<path d="M85 110H115V130H85V110Z" fill="#6B7280"/>
</svg>